<svg width="34" height="34" viewBox="0 0 34 34" fill="none" xmlns="http://www.w3.org/2000/svg">
<path d="M11 26C9.35 26 8.015 27.35 8.015 29C8.015 30.65 9.35 32 11 32C12.65 32 14 30.65 14 29C14 27.35 12.65 26 11 26ZM2 2V5H5L10.4 16.385L8.375 20.06C8.135 20.48 8 20.975 8 21.5C8 23.15 9.35 24.5 11 24.5H29V21.5H11.63C11.42 21.5 11.255 21.335 11.255 21.125L11.3 20.945L12.65 18.5H23.825C24.95 18.5 25.94 17.885 26.45 16.955L31.82 7.22C31.94 7.01 32 6.755 32 6.5C32 5.675 31.325 5 30.5 5H8.315L6.905 2H2ZM26 26C24.35 26 23.015 27.35 23.015 29C23.015 30.65 24.35 32 26 32C27.65 32 29 30.65 29 29C29 27.35 27.65 26 26 26Z" fill="#1D00B2"/>
</svg>
