<svg width="23" height="23" viewBox="0 0 23 23" fill="none" xmlns="http://www.w3.org/2000/svg">
<path d="M7.18611 2C4.32649 2 2 4.32649 2 7.18611V15.4839C2 18.3435 4.32649 20.67 7.18611 20.67H15.4839C18.3435 20.67 20.67 18.3435 20.67 15.4839V7.18611C20.67 4.32649 18.3435 2 15.4839 2H7.18611ZM7.18611 4.07444H15.4839C17.1995 4.07444 18.5956 5.47055 18.5956 7.18611V15.4839C18.5956 17.1995 17.1995 18.5956 15.4839 18.5956H7.18611C5.47055 18.5956 4.07444 17.1995 4.07444 15.4839V7.18611C4.07444 5.47055 5.47055 4.07444 7.18611 4.07444ZM16.5211 5.11167C16.246 5.11167 15.9822 5.22095 15.7877 5.41546C15.5932 5.60998 15.4839 5.8738 15.4839 6.14889C15.4839 6.42398 15.5932 6.6878 15.7877 6.88232C15.9822 7.07683 16.246 7.18611 16.5211 7.18611C16.7962 7.18611 17.06 7.07683 17.2545 6.88232C17.4491 6.6878 17.5583 6.42398 17.5583 6.14889C17.5583 5.8738 17.4491 5.60998 17.2545 5.41546C17.06 5.22095 16.7962 5.11167 16.5211 5.11167ZM11.335 6.14889C8.47538 6.14889 6.14889 8.47538 6.14889 11.335C6.14889 14.1946 8.47538 16.5211 11.335 16.5211C14.1946 16.5211 16.5211 14.1946 16.5211 11.335C16.5211 8.47538 14.1946 6.14889 11.335 6.14889ZM11.335 8.22333C13.0506 8.22333 14.4467 9.61943 14.4467 11.335C14.4467 13.0506 13.0506 14.4467 11.335 14.4467C9.61943 14.4467 8.22333 13.0506 8.22333 11.335C8.22333 9.61943 9.61943 8.22333 11.335 8.22333Z" fill="#1D00B2"/>
</svg>
