<svg width="18" height="23" viewBox="0 0 18 23" fill="none" xmlns="http://www.w3.org/2000/svg">
<path d="M8.5345 3.867C10.3362 3.867 13.202 5.1739 13.202 8.67452C13.202 10.6909 11.5964 13.034 8.5345 15.5077C5.47262 13.034 3.867 10.6816 3.867 8.67452C3.867 5.1739 6.73284 3.867 8.5345 3.867ZM8.5345 2C5.48196 2 2 4.29641 2 8.67452C2 11.587 4.17506 14.6583 8.5345 17.8695C12.8939 14.6583 15.069 11.587 15.069 8.67452C15.069 4.29641 11.587 2 8.5345 2Z" fill="#1D00B2"/>
<path d="M8.5345 6.6675C7.50765 6.6675 6.6675 7.50765 6.6675 8.5345C6.6675 9.56135 7.50765 10.4015 8.5345 10.4015C9.02966 10.4015 9.50454 10.2048 9.85467 9.85467C10.2048 9.50454 10.4015 9.02966 10.4015 8.5345C10.4015 8.03934 10.2048 7.56446 9.85467 7.21433C9.50454 6.8642 9.02966 6.6675 8.5345 6.6675ZM2 18.803H15.069V20.67H2V18.803Z" fill="#1D00B2"/>
</svg>
