<svg width="23" height="28" viewBox="0 0 23 23" fill="none" xmlns="http://www.w3.org/2000/svg">
<path d="M5.67177 4.07444C5.734 4.99757 5.88958 5.89996 6.13852 6.76085L4.89385 8.00552C4.46859 6.76085 4.19891 5.44358 4.10556 4.07444H5.67177ZM15.8988 16.5419C16.7804 16.7908 17.6828 16.9464 18.5956 17.0086V18.5541C17.2264 18.4607 15.9092 18.191 14.6541 17.7761L15.8988 16.5419ZM6.6675 2H3.03722C2.46675 2 2 2.46675 2 3.03722C2 12.7767 9.89326 20.67 19.6328 20.67C20.2033 20.67 20.67 20.2033 20.67 19.6328V16.0129C20.67 15.4424 20.2033 14.9757 19.6328 14.9757C18.3466 14.9757 17.0916 14.7682 15.9299 14.3844C15.8262 14.3429 15.7121 14.3326 15.6084 14.3326C15.3387 14.3326 15.0794 14.4363 14.8719 14.6334L12.59 16.9153C9.6547 15.4113 7.24834 13.0153 5.75474 10.08L8.03663 7.79807C8.32706 7.50765 8.41003 7.10313 8.29594 6.74011C7.91217 5.57842 7.70472 4.33375 7.70472 3.03722C7.70472 2.46675 7.23797 2 6.6675 2Z" fill="#1D00B2"/>
</svg>
