<svg width="19" height="23" viewBox="0 0 19 23" fill="none" xmlns="http://www.w3.org/2000/svg">
<path d="M9.468 2V15.069C9.468 16.1239 8.65591 16.936 7.601 16.936C6.54609 16.936 5.734 16.1239 5.734 15.069C5.734 14.0141 6.54609 13.202 7.601 13.202V9.468C4.52984 9.468 2 11.9978 2 15.069C2 18.1402 4.52984 20.67 7.601 20.67C10.6722 20.67 13.202 18.1402 13.202 15.069V8.03493C14.3523 8.8544 15.5528 9.468 16.936 9.468V5.734C16.8476 5.734 15.5594 5.32501 14.6606 4.5416C13.7618 3.75819 13.202 2.77479 13.202 2H9.468Z" fill="#1D00B2"/>
</svg>
