<?xml version="1.0" encoding="UTF-8"?><svg id="Layer_1" xmlns="http://www.w3.org/2000/svg" viewBox="0 0 596.65 119.08"><defs><style>.cls-1{fill:#1d00b2;}</style></defs><rect class="cls-1" x="579.64" width="17.01" height="119.08"/><rect class="cls-1" x="545.62" width="17.01" height="119.08"/><rect class="cls-1" x="511.59" width="17.01" height="119.08"/><polygon class="cls-1" points="0 17.01 205.86 17.01 212.65 17.01 467.83 17.01 467.83 0 212.65 0 205.86 0 0 0 0 17.01"/><polygon class="cls-1" points="0 51.04 205.86 51.04 212.65 51.04 467.83 51.04 467.83 34.02 212.65 34.02 205.86 34.02 0 34.02 0 51.04"/><polygon class="cls-1" points="0 85.06 205.86 85.06 212.65 85.06 467.83 85.06 467.83 68.05 212.65 68.05 205.86 68.05 0 68.05 0 85.06"/><polygon class="cls-1" points="0 119.08 205.86 119.08 212.65 119.08 467.83 119.08 467.83 102.07 212.65 102.07 205.86 102.07 0 102.07 0 119.08"/></svg>