<?xml version="1.0" encoding="UTF-8"?><svg id="Layer_3" xmlns="http://www.w3.org/2000/svg" viewBox="0 0 54.27 1750.88"><defs><style>.cls-1{fill:#1d00b2;}</style></defs><path class="cls-1" d="m53.7,79.14C53.69,43.32,31.48,12.62.12,0v5.43c28.53,12.33,48.57,40.71,48.59,73.72l.56,1671.74h5s-.56-1671.74-.56-1671.74Z"/><path class="cls-1" d="m29.35,80.53c0-22.34-11.68-41.99-29.23-53.23v6.04c14.66,10.58,24.22,27.78,24.23,47.19l.57,1670.2h5s-.57-1670.2-.57-1670.2Z"/><path class="cls-1" d="m4.99,81.93c0-7-1.77-13.58-4.88-19.35v41.46h-.12l.57,1646.55h5S4.99,81.93,4.99,81.93Z"/></svg>