<?xml version="1.0" encoding="UTF-8"?><svg id="Layer_1" xmlns="http://www.w3.org/2000/svg" viewBox="0 0 119.08 596.65"><defs><style>.cls-1{fill:#fafafa;}</style></defs><rect class="cls-1" y="579.64" width="119.08" height="17.01"/><rect class="cls-1" y="545.62" width="119.08" height="17.01"/><rect class="cls-1" y="511.59" width="119.08" height="17.01"/><polygon class="cls-1" points="102.07 0 102.07 205.86 102.07 212.65 102.07 467.83 119.08 467.83 119.08 212.65 119.08 205.86 119.08 0 102.07 0"/><polygon class="cls-1" points="68.05 0 68.05 205.86 68.05 212.65 68.05 467.83 85.06 467.83 85.06 212.65 85.06 205.86 85.06 0 68.05 0"/><polygon class="cls-1" points="34.02 0 34.02 205.86 34.02 212.65 34.02 467.83 51.04 467.83 51.04 212.65 51.04 205.86 51.04 0 34.02 0"/><polygon class="cls-1" points="0 0 0 205.86 0 212.65 0 467.83 17.01 467.83 17.01 212.65 17.01 205.86 17.01 0 0 0"/></svg>