<?xml version="1.0" encoding="UTF-8"?><svg id="Layer_1" xmlns="http://www.w3.org/2000/svg" viewBox="0 0 173.31 766.96"><defs><style>.cls-1{fill:#1d00b2;}</style></defs><rect class="cls-1" x="57.32" y="750.39" width="115.99" height="16.57"/><rect class="cls-1" x="57.32" y="717.25" width="115.99" height="16.57"/><rect class="cls-1" x="57.32" y="684.11" width="115.99" height="16.57"/><path class="cls-1" d="m62.04,74.22c-13.43-5.3-28.65-7.94-45.68-7.94-5.68,0-11.13.3-16.35.88v16.62c5.14-.62,10.59-.93,16.35-.93,21.94,0,39.78,4.79,53.51,14.38,13.73,9.59,20.6,24.13,20.6,43.61v455.66h16.57V140.84c0-16.11-4.14-29.92-12.43-41.42-8.29-11.51-19.14-19.91-32.56-25.2Z"/><path class="cls-1" d="m16.35,99.42c-5.91,0-11.35.34-16.35,1.01v16.23c1.09-.14,2.17-.26,3.24-.33,3.53-.23,7.9-.35,13.12-.35s9.59.12,13.12.35c3.53.23,7.17.84,10.93,1.84,3.76,1,6.79,2.34,9.09,4.03,2.3,1.69,4.18,4.1,5.64,7.25,1.46,3.15,2.19,6.94,2.19,11.39v455.66h16.57V140.84c0-27.62-19.18-41.42-57.53-41.42Z"/><path class="cls-1" d="m160.88,82.39c-8.28-17.8-19.52-32.68-33.71-44.64-14.19-11.97-30.84-21.25-49.94-27.85C58.13,3.3,37.83,0,16.35,0,10.79,0,5.34.21,0,.62v16.63c5.33-.45,10.78-.68,16.35-.68,25.93,0,49.44,4.91,70.54,14.73,21.09,9.82,38.01,24.28,50.74,43.38,12.73,19.1,19.1,41.16,19.1,66.16v455.66h16.57V140.84c0-21.17-4.14-40.66-12.43-58.45Z"/><path class="cls-1" d="m103.81,61.33c-11.2-8.97-24.32-15.92-39.35-20.83-15.03-4.91-31.07-7.36-48.1-7.36-5.59,0-11.04.26-16.35.75v16.63c5.28-.53,10.72-.81,16.35-.81,14.88,0,28.77,2,41.66,5.98,12.89,3.99,24.24,9.74,34.06,17.26,9.82,7.52,17.53,17.11,23.13,28.77,5.6,11.66,8.4,24.7,8.4,39.12v455.66h16.57V140.84c0-16.72-3.26-31.91-9.78-45.57-6.52-13.66-15.38-24.97-26.58-33.95Z"/></svg>