<?xml version="1.0" encoding="UTF-8"?><svg id="Layer_1" xmlns="http://www.w3.org/2000/svg" viewBox="0 0 500 500"><defs><style>.cls-1{fill:#fafafa;}.cls-2{fill:#1d00b2;}</style></defs><rect class="cls-2" width="500" height="500"/><polygon class="cls-1" points="209.25 265.8 206.46 265.8 176.58 265.8 174.32 265.8 170.6 265.8 170.6 307.64 128.68 307.64 128.68 265.8 125.2 265.8 122.7 265.8 92.81 265.8 90.28 265.8 86.84 265.8 86.84 385.34 91.42 385.34 92.81 385.34 122.7 385.34 126.35 385.34 128.68 385.34 128.68 337.53 170.6 337.53 170.6 385.34 174.05 385.34 176.58 385.34 206.46 385.34 208.97 385.34 212.44 385.34 212.44 265.8 209.25 265.8"/><path class="cls-1" d="m411.63,138.4c-2.99-6.42-7.04-11.79-12.16-16.1-5.12-4.32-11.12-7.67-18.01-10.05-6.89-2.38-14.21-3.57-21.96-3.57-13.72,0-25.62,3.46-35.7,10.38-10.07-6.92-21.97-10.38-35.7-10.38-7.75,0-15.07,1.19-21.96,3.57-6.89,2.38-12.89,5.73-18.01,10.05-5.12,4.32-9.17,9.68-12.16,16.1-2.99,6.42-4.48,13.45-4.48,21.09v74.71h5.98s29.89,0,29.89,0h0s5.98,0,5.98,0v-74.71c0-1.6.26-2.97.79-4.11.53-1.13,1.2-2.01,2.03-2.61.83-.61,1.92-1.09,3.28-1.45,1.36-.36,2.67-.58,3.94-.66,1.27-.08,2.85-.12,4.73-.12s3.46.04,4.73.12c1.27.08,2.59.3,3.94.66,1.36.36,2.45.84,3.28,1.45.83.61,1.51,1.48,2.03,2.61.53,1.13.79,2.5.79,4.11v74.71h5.98s29.89,0,29.89,0h0s5.98,0,5.98,0v-74.71c0-1.6.26-2.97.79-4.11.53-1.13,1.2-2.01,2.03-2.61.83-.61,1.92-1.09,3.28-1.45,1.36-.36,2.67-.58,3.94-.66,1.27-.08,2.85-.12,4.73-.12s3.46.04,4.73.12c1.27.08,2.59.3,3.94.66,1.36.36,2.45.84,3.28,1.45.83.61,1.51,1.48,2.03,2.61.53,1.13.79,2.5.79,4.11v164.37h41.84v-164.37c0-7.64-1.49-14.67-4.48-21.09Z"/><path class="cls-1" d="m342.62,265.8h-39.71v74.71c0,1.6-.26,2.97-.79,4.11-.53,1.13-1.2,2.01-2.03,2.62-.83.61-1.92,1.09-3.28,1.45-1.36.36-2.67.58-3.94.66-1.27.08-2.85.12-4.73.12h-.01c-1.88,0-3.46-.04-4.73-.12-1.27-.08-2.59-.31-3.94-.66-1.36-.36-2.45-.84-3.28-1.45-.83-.61-1.51-1.48-2.03-2.62-.53-1.13-.79-2.5-.79-4.11v-74.71h-41.84v74.71c0,7.64,1.49,14.67,4.48,21.09,2.99,6.42,7.04,11.79,12.16,16.11s11.12,7.66,18.01,10.04c6.89,2.38,14.21,3.57,21.96,3.57h.01c7.75,0,15.07-1.19,21.96-3.57,6.89-2.38,12.9-5.73,18.01-10.04,5.12-4.32,9.17-9.69,12.16-16.11,2.99-6.42,4.48-13.45,4.48-21.09v-74.71h-2.13Z"/><rect class="cls-1" x="374.27" y="355.46" width="41.84" height="29.89"/><path class="cls-1" d="m210.16,148.9c-3.49-8.11-8.16-15.1-14.03-20.96s-12.85-10.54-20.96-14.03c-8.11-3.49-16.62-5.23-25.53-5.23s-17.42,1.74-25.53,5.23-15.1,8.16-20.96,14.03c-5.87,5.87-10.54,12.85-14.03,20.96-3.49,8.11-5.23,16.62-5.23,25.53s1.74,17.42,5.23,25.53c3.49,8.11,8.16,15.1,14.03,20.96,5.87,5.87,12.85,10.54,20.96,14.03s16.62,5.23,25.53,5.23,17.42-1.74,25.53-5.23c8.11-3.49,15.1-8.16,20.96-14.03s10.54-12.85,14.03-20.96c3.49-8.11,5.23-16.62,5.23-25.53s-1.74-17.42-5.23-25.53Z"/></svg>