<?xml version="1.0" encoding="UTF-8"?><svg id="Layer_1" xmlns="http://www.w3.org/2000/svg" viewBox="0 0 500 500"><defs><style>.cls-1{fill:#fafafa;}</style></defs><path class="cls-1" d="m89.12,199.96c-3.49-8.11-5.23-16.62-5.23-25.53s1.74-17.42,5.23-25.53c3.49-8.11,8.16-15.1,14.03-20.96,5.87-5.87,12.85-10.54,20.96-14.03,8.11-3.49,16.62-5.23,25.53-5.23s17.42,1.74,25.53,5.23c8.11,3.49,15.1,8.16,20.96,14.03,5.87,5.87,10.54,12.85,14.03,20.96,3.49,8.11,5.23,16.62,5.23,25.53s-1.74,17.42-5.23,25.53c-3.49,8.11-8.16,15.1-14.03,20.96-5.87,5.87-12.85,10.54-20.96,14.03-8.11,3.49-16.62,5.23-25.53,5.23s-17.42-1.74-25.53-5.23c-8.11-3.49-15.1-8.16-20.96-14.03-5.87-5.87-10.54-12.85-14.03-20.96Zm5.48-48.73c-3.15,7.39-4.73,15.12-4.73,23.2s1.58,15.81,4.73,23.2c3.15,7.39,7.4,13.75,12.74,19.09,5.34,5.34,11.71,9.59,19.09,12.74,7.39,3.15,15.12,4.73,23.2,4.73s15.81-1.58,23.2-4.73c7.39-3.15,13.75-7.4,19.09-12.74,5.34-5.34,9.59-11.71,12.74-19.09,3.15-7.39,4.73-15.12,4.73-23.2s-1.58-15.81-4.73-23.2c-3.15-7.39-7.4-13.75-12.74-19.09s-11.71-9.59-19.09-12.74c-7.39-3.15-15.12-4.73-23.2-4.73s-15.81,1.58-23.2,4.73c-7.39,3.15-13.75,7.4-19.09,12.74-5.34,5.34-9.59,11.71-12.74,19.09Zm5.52,44.12c-2.85-6.64-4.28-13.61-4.28-20.92s1.43-14.28,4.28-20.92c2.85-6.64,6.67-12.36,11.46-17.14,4.79-4.79,10.5-8.61,17.14-11.46,6.64-2.85,13.61-4.28,20.92-4.28s14.28,1.43,20.92,4.28c6.64,2.85,12.36,6.67,17.14,11.46,4.79,4.79,8.61,10.5,11.46,17.14,2.85,6.64,4.28,13.61,4.28,20.92s-1.43,14.28-4.28,20.92c-2.85,6.64-6.67,12.36-11.46,17.14s-10.5,8.61-17.14,11.46-13.61,4.28-20.92,4.28-14.28-1.43-20.92-4.28c-6.64-2.85-12.36-6.67-17.14-11.46-4.79-4.79-8.61-10.5-11.46-17.14Zm5.48-39.47c-2.52,5.89-3.78,12.08-3.78,18.55s1.26,12.66,3.78,18.55c2.52,5.89,5.92,10.99,10.21,15.27,4.29,4.29,9.38,7.69,15.27,10.21,5.89,2.52,12.08,3.78,18.55,3.78s12.66-1.26,18.55-3.78c5.89-2.52,10.99-5.92,15.27-10.21,4.29-4.29,7.69-9.38,10.21-15.27,2.52-5.89,3.78-12.08,3.78-18.55s-1.26-12.66-3.78-18.55-5.92-10.99-10.21-15.27c-4.29-4.29-9.38-7.69-15.27-10.21-5.89-2.52-12.08-3.78-18.55-3.78s-12.66,1.26-18.55,3.78c-5.89,2.52-10.99,5.92-15.27,10.21-4.29,4.29-7.69,9.38-10.21,15.27Zm7.8,39.56c-3.74-6.42-5.6-13.42-5.6-21s1.87-14.58,5.6-21,8.81-11.5,15.23-15.23c6.42-3.74,13.42-5.6,21-5.6s14.58,1.87,21,5.6c6.42,3.74,11.5,8.81,15.23,15.23,3.74,6.42,5.6,13.42,5.6,21s-1.87,14.58-5.6,21c-3.74,6.42-8.81,11.5-15.23,15.23-6.42,3.74-13.42,5.6-21,5.6s-14.58-1.87-21-5.6c-6.42-3.74-11.5-8.81-15.23-15.23Zm10.88-46.32c-7,7.03-10.5,15.47-10.5,25.32s3.5,18.29,10.5,25.32c7,7.03,15.45,10.54,25.36,10.54s18.36-3.51,25.36-10.54,10.5-15.47,10.5-25.32-3.5-18.29-10.5-25.32c-7-7.03-15.45-10.54-25.36-10.54s-18.36,3.51-25.36,10.54Zm4.23,46.45c-5.84-5.84-8.76-12.88-8.76-21.13s2.92-15.29,8.76-21.13c5.84-5.84,12.88-8.76,21.13-8.76s15.29,2.92,21.13,8.76c5.84,5.84,8.76,12.88,8.76,21.13s-2.92,15.29-8.76,21.13c-5.84,5.84-12.88,8.76-21.13,8.76s-15.29-2.92-21.13-8.76Zm4.23-38.02c-4.68,4.68-7.01,10.31-7.01,16.89s2.34,12.22,7.01,16.89c4.68,4.68,10.31,7.01,16.89,7.01s12.22-2.34,16.89-7.01c4.68-4.68,7.01-10.31,7.01-16.89s-2.34-12.22-7.01-16.89c-4.68-4.68-10.31-7.01-16.89-7.01s-12.22,2.34-16.89,7.01Z"/><path class="cls-1" d="m86.84,265.8h5.98v119.54h-5.98v-119.54Zm11.95,0h5.98v119.54h-5.98v-119.54Zm11.95,0h5.98v119.54h-5.98v-119.54Zm59.85,0h5.98v119.54h-5.98v-47.82h-41.92v47.82h-5.98v-119.54h5.98v41.84h41.92v-41.84Zm0,53.79v-5.98h-41.92v5.98h41.92Zm0,11.95v-5.98h-41.92v5.98h41.92Zm11.95-65.75h5.98v119.54h-5.98v-119.54Zm11.95,0h5.98v119.54h-5.98v-119.54Zm11.95,0h5.98v119.54h-5.98v-119.54Z"/><rect class="cls-1" x="374.27" y="379.37" width="41.84" height="5.98"/><rect class="cls-1" x="374.27" y="367.41" width="41.84" height="5.98"/><rect class="cls-1" x="374.27" y="355.46" width="41.84" height="5.98"/><path class="cls-1" d="m304.58,135.45c-4.84-1.91-10.34-2.86-16.48-2.86s-11.64.95-16.48,2.86c-4.84,1.91-8.76,4.94-11.75,9.09-2.99,4.15-4.48,9.13-4.48,14.94v74.71h5.98v-74.71c0-7.03,2.48-12.27,7.43-15.73,4.95-3.46,11.39-5.19,19.3-5.19s14.35,1.73,19.3,5.19c4.95,3.46,7.43,8.7,7.43,15.73v74.71h5.98v-74.71c0-5.81-1.49-10.79-4.48-14.94-2.99-4.15-6.9-7.18-11.75-9.09Z"/><path class="cls-1" d="m288.1,144.54c-13.84,0-20.75,4.98-20.75,14.94v74.71h5.98v-74.71c0-1.6.26-2.97.79-4.11.53-1.13,1.2-2.01,2.03-2.61.83-.61,1.92-1.09,3.28-1.45,1.36-.36,2.67-.58,3.94-.66,1.27-.08,2.85-.12,4.73-.12s3.46.04,4.73.12c1.27.08,2.59.3,3.94.66,1.36.36,2.45.84,3.28,1.45.83.61,1.51,1.48,2.03,2.61.53,1.13.79,2.5.79,4.11v74.71h5.98v-74.71c0-9.96-6.92-14.94-20.75-14.94Z"/><path class="cls-1" d="m411.63,138.4c-2.99-6.42-7.04-11.79-12.16-16.1-5.12-4.32-11.12-7.67-18.01-10.05s-14.21-3.57-21.96-3.57c-13.72,0-25.62,3.46-35.7,10.38-10.07-6.92-21.97-10.38-35.7-10.38-7.75,0-15.07,1.19-21.96,3.57-6.89,2.38-12.89,5.73-18.01,10.05-5.12,4.32-9.17,9.68-12.16,16.1-2.99,6.42-4.48,13.45-4.48,21.09v74.71h5.98v-74.71c0-9.08,2.3-17.06,6.89-23.95,4.59-6.89,10.7-12.09,18.3-15.61,7.61-3.51,16.09-5.27,25.45-5.27,6.81,0,13.34,1.19,19.59,3.57,6.25,2.38,11.65,5.58,16.19,9.59,4.54,4.01,8.15,8.79,10.83,14.32,2.68,5.53,4.03,11.32,4.03,17.35v74.71h5.98v-74.71c0-1.6.26-2.97.79-4.11.53-1.13,1.2-2.01,2.03-2.61.83-.61,1.92-1.09,3.28-1.45,1.36-.36,2.67-.58,3.94-.66,1.27-.08,2.85-.12,4.73-.12s3.46.04,4.73.12c1.27.08,2.59.3,3.94.66,1.36.36,2.45.84,3.28,1.45.83.61,1.51,1.48,2.03,2.61.53,1.13.79,2.5.79,4.11v164.37h5.98v-164.37c0-9.96-6.92-14.94-20.75-14.94-7.08,0-12.37,1.33-15.86,3.98-.39-1.88-.94-3.87-1.66-5.98,4.48-2.66,10.32-3.98,17.52-3.98,7.91,0,14.35,1.73,19.3,5.19,4.95,3.46,7.43,8.7,7.43,15.73v164.37h5.98v-164.37c0-5.81-1.49-10.79-4.48-14.94-2.99-4.15-6.9-7.18-11.75-9.09-4.84-1.91-10.34-2.86-16.48-2.86-7.8,0-14.42,1.52-19.84,4.57-1-1.88-1.99-3.6-2.99-5.15,6.42-3.6,14.03-5.4,22.83-5.4,5.37,0,10.38.72,15.03,2.16,4.65,1.44,8.74,3.52,12.29,6.23,3.54,2.71,6.32,6.17,8.34,10.38,2.02,4.21,3.03,8.91,3.03,14.11v164.37h5.98v-164.37c0-6.03-1.18-11.51-3.53-16.44-2.35-4.93-5.55-9.01-9.59-12.25-4.04-3.24-8.77-5.74-14.2-7.51-5.42-1.77-11.21-2.66-17.35-2.66-10.07,0-18.9,2.21-26.48,6.64-1.55-1.77-2.96-3.21-4.23-4.32,8.74-5.53,18.98-8.3,30.72-8.3,9.35,0,17.83,1.77,25.45,5.31,7.61,3.54,13.71,8.76,18.3,15.65,4.59,6.89,6.89,14.85,6.89,23.87v164.37h5.98v-164.37c0-7.64-1.49-14.67-4.48-21.09Z"/><path class="cls-1" d="m319.65,130.8c-4.04-3.24-8.77-5.74-14.2-7.51-5.42-1.77-11.21-2.66-17.35-2.66s-11.93.89-17.35,2.66c-5.42,1.77-10.16,4.28-14.2,7.51-4.04,3.24-7.24,7.32-9.59,12.25-2.35,4.93-3.53,10.4-3.53,16.44v74.71h5.98v-74.71c0-5.2,1.01-9.91,3.03-14.11,2.02-4.21,4.8-7.66,8.34-10.38,3.54-2.71,7.64-4.79,12.29-6.23,4.65-1.44,9.66-2.16,15.03-2.16s10.38.72,15.03,2.16c4.65,1.44,8.74,3.52,12.29,6.23,3.54,2.71,6.32,6.17,8.34,10.38,2.02,4.21,3.03,8.91,3.03,14.11v74.71h5.98v-74.71c0-6.03-1.18-11.51-3.53-16.44-2.35-4.93-5.55-9.01-9.59-12.25Z"/><path class="cls-1" d="m271.64,364.55c4.84,1.91,10.34,2.86,16.48,2.86h0s0,0,0,0c6.14,0,11.64-.96,16.48-2.86,4.84-1.91,8.76-4.94,11.75-9.09s4.48-9.13,4.48-14.94v-74.71h-5.98v74.71c0,7.03-2.48,12.27-7.43,15.73-4.95,3.46-11.39,5.19-19.3,5.19,0,0,0,0,0,0,0,0,0,0,0,0-7.91,0-14.35-1.73-19.3-5.19-4.95-3.46-7.43-8.7-7.43-15.73v-74.71h-5.98v74.71c0,5.81,1.49,10.79,4.48,14.94,2.99,4.15,6.9,7.18,11.75,9.09Z"/><path class="cls-1" d="m256.57,369.2c4.04,3.24,8.77,5.74,14.2,7.51,5.42,1.77,11.21,2.66,17.35,2.66h0s0,0,0,0c6.14,0,11.93-.89,17.35-2.66,5.42-1.77,10.15-4.28,14.2-7.51s7.24-7.32,9.59-12.24c2.35-4.93,3.53-10.41,3.53-16.44v-74.71h-5.98v74.71c0,5.2-1.01,9.91-3.03,14.11-2.02,4.21-4.8,7.66-8.34,10.38-3.54,2.71-7.64,4.79-12.29,6.23-4.65,1.44-9.66,2.16-15.03,2.16h-.01c-5.37,0-10.38-.72-15.03-2.16-4.65-1.44-8.74-3.51-12.29-6.23-3.54-2.71-6.32-6.17-8.34-10.38-2.02-4.21-3.03-8.91-3.03-14.11v-74.71h-5.98v74.71c0,6.03,1.18,11.51,3.53,16.44,2.35,4.93,5.55,9.01,9.59,12.24Z"/><path class="cls-1" d="m288.12,355.46s0,0,0,0c0,0,0,0,0,0,13.84,0,20.75-4.98,20.75-14.94v-74.71h-5.98v74.71c0,1.6-.26,2.97-.79,4.11-.53,1.13-1.2,2.01-2.03,2.62-.83.61-1.92,1.09-3.28,1.45-1.36.36-2.67.58-3.94.66-1.27.08-2.85.12-4.73.12h-.01c-1.88,0-3.46-.04-4.73-.12-1.27-.08-2.59-.31-3.94-.66-1.36-.36-2.45-.84-3.28-1.45-.83-.61-1.51-1.48-2.03-2.62-.53-1.13-.79-2.5-.79-4.11v-74.71h-5.98v74.71c0,9.96,6.92,14.94,20.75,14.94Z"/><path class="cls-1" d="m338.77,265.8v74.71c0,9.08-2.3,17.06-6.89,23.95s-10.7,12.09-18.31,15.61c-7.61,3.52-16.09,5.27-25.44,5.27,0,0,0,0,0,0s0,0,0,0c-9.35,0-17.83-1.76-25.45-5.27-7.61-3.51-13.71-8.72-18.3-15.61-4.59-6.89-6.89-14.87-6.89-23.95v-74.71h-5.98v74.71c0,7.64,1.49,14.67,4.48,21.09,2.99,6.42,7.04,11.79,12.16,16.11,5.12,4.32,11.12,7.66,18.01,10.04,6.89,2.38,14.21,3.57,21.96,3.57h.01c7.75,0,15.07-1.19,21.96-3.57,6.89-2.38,12.9-5.73,18.01-10.04,5.12-4.32,9.17-9.69,12.16-16.11,2.99-6.42,4.48-13.45,4.48-21.09v-74.71h-5.98Z"/></svg>