<?xml version="1.0" encoding="UTF-8"?><svg id="Teddy_closed" xmlns="http://www.w3.org/2000/svg" viewBox="0 0 800 800"><defs><style>.cls-1{stroke-width:6px;}.cls-1,.cls-2{stroke:#1d00b2;}.cls-1,.cls-2,.cls-3{stroke-miterlimit:10;}.cls-1,.cls-3{fill:none;}.cls-4{fill:#292927;}.cls-2{fill:#fafafa;}.cls-3{stroke:#292927;}</style></defs><path class="cls-1" d="m177.3,448.91v-127.99c0-8.42,5.32-15.91,13.27-18.69l62.62-21.86c12.87-4.49,26.32,5.06,26.32,18.69v111.62"/><path class="cls-1" d="m629.52,574.54l-192.79-83.87v-190.11c0-10.52,10.79-17.59,20.44-13.4l163.57,71.16c5.33,2.32,8.78,7.58,8.78,13.4v202.82Z"/><path class="cls-2" d="m714.73,547.15v-.39s-1.11-48.17-1.11-48.17l-153.25-16.46-88.9-9.55-177.01-33.91-56.14-8.14-105.61-15.32.83,47.39.03.09c-.04,1.03.31,2.08,1.08,2.87.27.28.59.52.97.73l305.05,164.11c14.57,7.84,31.8,9.04,47.31,3.29l219.51-81.27,4.68-1.73c1.3-.48,2.1-1.48,2.41-2.61l.16-.1-.02-.82Z"/><path class="cls-2" d="m439.83,583.35l-305.05-164.11c-3.11-1.67-2.6-6.28.8-7.23l197.5-55.29c12.25-3.43,25.28-2.71,37.08,2.04l341.28,137.56c3.33,1.34,3.26,6.07-.1,7.32l-224.2,83.01c-15.51,5.74-32.74,4.54-47.31-3.29Z"/><path class="cls-2" d="m714.73,500.95v-.39s-1.11-48.17-1.11-48.17l-153.25-16.46-88.9-9.55-177.01-33.91-56.14-8.14-105.61-15.32.83,47.39.03.09c-.04,1.03.31,2.08,1.08,2.87.27.28.59.52.97.73l305.05,164.11c14.57,7.84,31.8,9.04,47.31,3.29l219.51-81.27,4.68-1.73c1.3-.48,2.1-1.48,2.41-2.61l.16-.1-.02-.82Z"/><path class="cls-2" d="m439.83,537.15l-305.05-164.11c-3.11-1.67-2.6-6.28.8-7.23l197.5-55.29c12.25-3.43,25.28-2.71,37.08,2.04l341.28,137.56c3.33,1.34,3.26,6.07-.1,7.32l-224.2,83.01c-15.51,5.74-32.74,4.54-47.31-3.29Z"/><path class="cls-2" d="m442.56,389.56l53.97-24.43v-66.16c-72.21,9.3-53.97,90.59-53.97,90.59Z"/><path class="cls-2" d="m344.92,241.72c-10.49-3.96-21.96-4.47-32.76-1.46l-177.05,49.4c-1.95.54-3.3,2.32-3.3,4.35v55.45c0,4.67,2.49,8.98,6.53,11.31l21.14,12.2c2.47,1.43,5.42,1.8,8.17,1.03l142.61-39.93,132.3,55.49,53.97-24.43v-66.16l-151.6-57.25Z"/><path class="cls-2" d="m160.44,373.3l-22.04-12.55c-4.08-2.32-6.6-6.66-6.6-11.35v-55.46c0-1.13,1.22-1.83,2.2-1.28l20.24,11.52c5.45,3.11,8.82,8.9,8.82,15.17v52.42c0,1.34-1.45,2.18-2.62,1.52Z"/><path class="cls-2" d="m498.88,300.09l201.29,76.02c10.46,3.95,17.39,13.97,17.39,25.15v37.99c.02,9.94-6.18,18.82-15.5,22.25l-212.55,78.27-26.11-12.38c-4.2-1.99-7.01-6.08-7.37-10.71l-3.89-50.12c-.39-5.01,2.6-9.68,7.32-11.42l75.16-27.76-89.04-36.81s-17.38-81.63,53.31-90.48Z"/><path class="cls-2" d="m488.71,539.53l-25.08-11.71c-4.62-2.16-7.68-6.69-7.94-11.79l-3.63-51.05c-.05-1.04,1.75-3.13,2.7-2.7l23.54,9.6c3.15,1.41,5.28,4.42,5.56,7.86l4.84,59.79Z"/><path class="cls-1" d="m567.81,604.24v-127.99c0-8.42,5.32-15.91,13.27-18.69l62.62-21.86c12.87-4.49,26.32,5.06,26.32,18.69v111.62"/><line class="cls-3" x1="113.58" y1="294.21" x2="113.58" y2="459.65"/><polygon class="cls-4" points="111.89 296.2 113.58 294.5 115.28 296.2 115.28 294.76 113.58 293.06 111.89 294.76 111.89 296.2"/><polygon class="cls-4" points="111.89 457.65 113.58 459.35 115.28 457.65 115.28 459.09 113.58 460.79 111.89 459.09 111.89 457.65"/><path d="m91.11,389.33h.83l7.82,3.33v1.1l-7.71-3.38v4.63h-.94v-5.68Z"/><path d="m90.96,385.07c0-2.39,1.9-3.01,4.38-3.01s4.43.62,4.43,3.01-1.91,3.02-4.43,3.02-4.38-.62-4.38-3.02Zm1,0c0,1.72,1.58,1.94,3.38,1.94s3.43-.23,3.43-1.94-1.56-1.93-3.43-1.93-3.38.23-3.38,1.93Z"/><path d="m93.08,377.59c0-1.63.84-2.7,2.22-3.03v1.18c-.79.23-1.3.89-1.3,1.86,0,1.2.85,2.09,2.46,2.09s2.48-.89,2.48-2.09c0-.97-.47-1.62-1.3-1.86v-1.18c1.31.34,2.22,1.4,2.22,3.03,0,1.87-1.32,3.2-3.41,3.2s-3.38-1.33-3.38-3.2Z"/><path d="m96.04,363.62c-1.34,0-2.03.72-2.03,1.8s.71,1.86,2.12,1.86h3.62v1.08h-3.72c-1.34,0-2.03.72-2.03,1.8s.71,1.86,2.12,1.86h3.62v1.09h-6.57v-1.09h.95c-.7-.43-1.07-1.21-1.07-2.07,0-1.08.48-1.98,1.46-2.41-.95-.38-1.46-1.32-1.46-2.33,0-1.5.94-2.66,2.82-2.66h3.87v1.08h-3.72Z"/><line class="cls-3" x1="726.23" y1="456.07" x2="726.23" y2="548.15"/><polygon class="cls-4" points="724.54 458.07 726.23 456.37 727.93 458.07 727.93 456.63 726.23 454.93 724.54 456.63 724.54 458.07"/><polygon class="cls-4" points="724.54 546.16 726.23 547.85 727.93 546.16 727.93 547.6 726.23 549.29 724.54 547.6 724.54 546.16"/><path d="m745.07,490.82c0,1.69-.98,2.61-2.23,2.61-1,0-1.77-.62-1.98-1.54h-.06c-.24,1.01-.98,1.69-2.23,1.69-1.34,0-2.4-.94-2.4-2.75,0-1.64.88-2.87,2.55-3v1.06c-.92.11-1.63.78-1.63,1.93s.68,1.71,1.57,1.71c1.22,0,1.69-.85,1.69-2.41v-.28h.91v.29c.01,1.45.46,2.23,1.46,2.23.83,0,1.4-.55,1.4-1.6s-.58-1.63-1.42-1.74v-1.07c1.49.11,2.35,1.24,2.35,2.84Z"/><path d="m738.16,499.25v-4.44h.83l5.83,4.21v1.31h-5.71v1.2h-.95v-1.2h-1.93v-1.08h1.93Zm.95.05h4.57l-4.57-3.23v3.23Z"/><path d="m742.91,505.58c0,1.63-.84,2.7-2.22,3.03v-1.18c.79-.23,1.3-.89,1.3-1.86,0-1.2-.85-2.09-2.46-2.09s-2.48.89-2.48,2.09c0,.97.47,1.62,1.3,1.86v1.18c-1.31-.34-2.22-1.4-2.22-3.03,0-1.87,1.32-3.2,3.41-3.2s3.38,1.33,3.38,3.2Z"/><path d="m739.94,519.57c1.34,0,2.03-.72,2.03-1.8s-.71-1.86-2.12-1.86h-3.62v-1.08h3.72c1.34,0,2.03-.72,2.03-1.8s-.71-1.86-2.12-1.86h-3.62v-1.09h6.57v1.09h-.95c.7.43,1.07,1.21,1.07,2.07,0,1.08-.48,1.98-1.46,2.41.95.38,1.46,1.32,1.46,2.33,0,1.5-.94,2.66-2.82,2.66h-3.87v-1.08h3.72Z"/><line class="cls-3" x1="355.48" y1="215.57" x2="699.77" y2="346.72"/><polygon class="cls-4" points="356.73 217.86 355.75 215.67 357.94 214.69 356.59 214.18 354.41 215.16 355.39 217.35 356.73 217.86"/><polygon class="cls-4" points="697.3 347.6 699.49 346.62 698.51 344.43 699.85 344.94 700.84 347.13 698.65 348.11 697.3 347.6"/><path d="m509.19,258.02c2.78-.9,5.42-1.75,6.05-3.41.34-.9.21-1.72-.89-2.14-1.05-.4-1.87.12-2.3,1.13l-.99-.38c.73-1.7,2.15-2.18,3.61-1.63,1.53.58,2.17,1.85,1.6,3.36-.77,2.02-3.6,2.91-5.49,3.53l3.86,1.47-.32.85-5.39-2.06.28-.73Z"/><path d="m521.42,254.19c2.23.85,2.14,2.84,1.26,5.17-.9,2.36-2.16,3.92-4.39,3.07-2.24-.85-2.15-2.86-1.25-5.21.88-2.32,2.14-3.87,4.39-3.02Zm-.35.93c-1.6-.61-2.38.79-3.02,2.47-.67,1.75-1.01,3.29.59,3.9,1.59.61,2.36-.77,3.03-2.52.64-1.68.99-3.24-.6-3.85Z"/><path d="m528.47,256.87c2.23.85,2.14,2.84,1.26,5.17-.9,2.36-2.16,3.92-4.39,3.07-2.24-.85-2.15-2.86-1.25-5.21.88-2.32,2.14-3.87,4.39-3.02Zm-.35.93c-1.6-.61-2.38.79-3.02,2.47-.67,1.75-1.01,3.29.59,3.9,1.59.61,2.36-.77,3.03-2.52.64-1.68.99-3.24-.6-3.85Z"/><path d="m534.71,261.53c1.53.58,2.22,1.75,2.05,3.16l-1.1-.42c.07-.82-.37-1.53-1.28-1.87-1.12-.43-2.25.05-2.83,1.56-.58,1.52-.05,2.64,1.07,3.06.91.35,1.68.14,2.2-.55l1.1.42c-.78,1.1-2.1,1.57-3.63.99-1.75-.67-2.52-2.37-1.78-4.33.73-1.93,2.45-2.69,4.2-2.02Z"/><path d="m546.73,269.28c.48-1.26.05-2.15-.96-2.54-1.03-.39-1.99,0-2.49,1.32l-1.29,3.39-1.01-.38,1.32-3.48c.48-1.26.05-2.15-.96-2.54-1.03-.39-1.99,0-2.49,1.32l-1.29,3.39-1.02-.39,2.34-6.15,1.02.39-.34.89c.65-.5,1.51-.57,2.32-.26,1.01.38,1.68,1.15,1.73,2.23.7-.75,1.75-.9,2.7-.54,1.4.53,2.16,1.82,1.49,3.58l-1.38,3.62-1.01-.38,1.32-3.48Z"/><line class="cls-3" x1="303.46" y1="216.42" x2="131.28" y2="261.24"/><polygon class="cls-4" points="301.1 215.28 303.17 216.49 301.96 218.56 303.35 218.2 304.57 216.13 302.5 214.91 301.1 215.28"/><polygon class="cls-4" points="132.78 259.1 131.56 261.17 133.63 262.38 132.24 262.75 130.17 261.53 131.38 259.46 132.78 259.1"/><path d="m187.48,226.34l-1.11.29-.25-.96,2.18-.57,2.18,8.4-1.07.28-1.93-7.43Z"/><path d="m193.02,223.73c2.31-.6,3.39,1.08,4.02,3.48.63,2.44.51,4.44-1.8,5.04-2.32.6-3.41-1.08-4.04-3.52-.63-2.4-.5-4.4,1.82-5Zm.25.96c-1.66.43-1.48,2.02-1.03,3.76.47,1.81,1.08,3.26,2.75,2.83,1.65-.43,1.48-2,1.01-3.81-.45-1.74-1.07-3.22-2.72-2.79Z"/><path d="m200.31,221.83c2.31-.6,3.39,1.08,4.02,3.48.63,2.44.51,4.44-1.8,5.04-2.32.6-3.41-1.08-4.04-3.52-.63-2.4-.5-4.4,1.82-5Zm.25.96c-1.66.43-1.48,2.02-1.03,3.76.47,1.81,1.08,3.26,2.75,2.83,1.65-.43,1.48-2,1.01-3.81-.45-1.74-1.07-3.22-2.72-2.79Z"/><path d="m208.09,222c1.58-.41,2.82.13,3.5,1.38l-1.14.3c-.42-.71-1.19-1.03-2.13-.79-1.16.3-1.81,1.35-1.4,2.91.41,1.58,1.48,2.18,2.65,1.88.94-.24,1.45-.86,1.47-1.72l1.14-.3c0,1.35-.8,2.5-2.38,2.91-1.81.47-3.43-.47-3.96-2.49-.52-2,.44-3.61,2.25-4.08Z"/><path d="m222.37,221.35c-.34-1.3-1.21-1.78-2.25-1.51-1.07.28-1.62,1.15-1.27,2.52l.91,3.51-1.04.27-.94-3.6c-.34-1.3-1.21-1.78-2.25-1.51-1.07.28-1.62,1.15-1.27,2.52l.91,3.51-1.06.27-1.66-6.36,1.06-.27.24.92c.24-.78.9-1.34,1.74-1.56,1.04-.27,2.04-.03,2.7.81.13-1.01.91-1.75,1.88-2,1.45-.38,2.81.23,3.29,2.06l.98,3.75-1.04.27-.94-3.6Z"/></svg>